# xmcd CD database file
#
# Track frame offsets:
#	150
#	7548
#	20985
#	38203
#	53188
#	64458
#	87545
#	101695
#	115593
#	130450
#	146093
#	158978
#	175100
#	191490
#	206585
#	222110
#	236618
#	251540
#	267068
#	281055
#	302075
#
# Disc length: 4059 seconds
#
# Revision: 0
# Processed by: cddbd v1.4PL0 Copyright (c) Steve Scherf et al.
# Submitted via: CDex 1.50beta10
#
DISCID=320fd915
DTITLE=Benny Goodman - Camel Caravan Broadcasts
DYEAR=1939
DGENRE=Jazz
TTITLE0=Lets dance
TTITLE1=Clap your hands
TTITLE2=And the angels sing
TTITLE3=Paradise
TTITLE4=She's funny that way
TTITLE5=T aint what you do
TTITLE6=Goodnight my love
TTITLE7=Swinging in the rockies
TTITLE8=Rose of whasington square
TTITLE9=The man I love
TTITLE10=Show your linen, miss richardson
TTITLE11=Who'll by my bublitchki
TTITLE12=Pick a rib
TTITLE13=Night must fall
TTITLE14=You and your love
TTITLE15=The beer barrel polka
TTITLE16=Carolina in teh morning
TTITLE17=Opus 3/4
TTITLE18=Don't worry 'bout me
TTITLE19=Madhouse
TTITLE20=Good-Bye
EXTD=YEAR: 1939
EXTT0=
EXTT1=
EXTT2=
EXTT3=
EXTT4=
EXTT5=
EXTT6=
EXTT7=
EXTT8=
EXTT9=
EXTT10=
EXTT11=
EXTT12=
EXTT13=
EXTT14=
EXTT15=
EXTT16=
EXTT17=
EXTT18=
EXTT19=
EXTT20=
PLAYORDER=
